<svg version="1" xmlns="http://www.w3.org/2000/svg" width="202.667" height="202.667" viewBox="0 0 152.000000 152.000000"><path d="M0 42.9v42.9L18.1 100c9.9 7.8 18.2 14 18.4 13.8.1-.2-1.3-13.4-3.1-29.3-1.8-16-3.3-29.6-3.3-30.4-.2-3.7 3.9 3.7 22.4 40.8 10.9 22 20.3 39.7 20.7 39.5.4-.3.8-27.1.8-59.6V15.7l-2.5-2.3c-3-2.8-3.4-8.7-.8-11.6C72.3.1 71.1 0 36.2 0H0v42.9zM82.4 2.5c2.3 3.5 2 7.5-.9 10.5L79 15.6l.2 60 .3 59.9 21-41.5c17.4-34.4 21.1-41 21.3-38.3.3 2.7-3.8 43.2-5.4 53.7-.5 3.4-.4 3.8 1.1 3.3.9-.4 9-6.4 18-13.4l16.4-12.8.1-43.3V0H80.8l1.6 2.5zM74.5 5.9c-.8 1.5.3 3.1 2.1 3.1.9 0 1.4-.7 1.2-1.7-.4-2-2.4-2.8-3.3-1.4z"/><path d="M39 84.2c0 2.5 3.9 35.1 4.2 35.2.2.2 5.3 4.1 11.4 8.9 6.1 4.8 11.4 8.7 11.8 8.7.3 0-5.5-12.2-12.9-27-7.4-14.9-13.7-27-14-27-.3 0-.5.6-.5 1.2zM99.2 109.6c-7.4 14.6-13.2 26.8-12.9 27 .9.9 23.7-17.7 23.7-19.2 0-2 2.9-28.1 3.5-31.7.2-1.5.1-2.7-.3-2.6-.4 0-6.7 12-14 26.5zM0 121.8V152h38.2l-1.4-2.3c-.8-1.2-9-14.4-18.2-29.2C9.4 105.6 1.4 93.1.9 92.5c-.5-.5-.9 11-.9 29.3zM142.9 106.2c-4.5 7.3-12.7 20.4-18.1 29.1-5.4 8.7-9.8 16-9.8 16.3 0 .2 8.3.4 18.5.4H152v-29.5c0-16.2-.2-29.5-.4-29.5-.3 0-4.2 6-8.7 13.2zM111 125.7c-12.9 10.1-23.9 18.9-24.4 19.4-.6.5 3.9.9 12 .9h12.9l11.8-19.1c6.5-10.5 11.7-19.3 11.5-19.4-.2-.2-10.9 8-23.8 18.2zM18.6 109.2c.4.7 5.6 9.3 11.6 19l11 17.8h13.1c7.2 0 12.8-.2 12.6-.4-3-2.8-47.9-37.6-48.5-37.6-.3 0-.2.6.2 1.2z"/></svg>