<svg xmlns="http://www.w3.org/2000/svg" xmlns:xlink="http://www.w3.org/1999/xlink" width="157.527" height="159.939" viewBox="0 0 157.527 159.939">
<defs>
<clipPath id="clip-path">
<path d="M82.394-158.111a3.563,3.563,0,0,1-3.559-3.559,3.563,3.563,0,0,1,3.559-3.559,3.563,3.563,0,0,1,3.559,3.559,3.563,3.563,0,0,1-3.559,3.559Zm-3.559,19.948c-4.01,1.1-7.389,6.24-10.064,15.314v-41.344l6.769,3.385a6.917,6.917,0,0,0,3.295,5.053ZM73.75-102.237l-2.607-2.607h5Zm-22.735-2.607H63.443L57.061-98.8Zm-10.252,2.607-2.607-2.607h5ZM28.515-161.67a3.563,3.563,0,0,1,3.559-3.559,3.563,3.563,0,0,1,3.559,3.559,3.563,3.563,0,0,1-3.559,3.559,3.563,3.563,0,0,1-3.559-3.559Zm10.44.645,6.333-3.167v41.614c-2.75-9.361-6.057-14.492-10.064-15.587v-17.358a6.922,6.922,0,0,0,3.731-5.5ZM35.224-108.2v-26.328c4.509,2.726,8.236,15.865,9.815,26.328Zm13.419,0H65.416v-53.675H48.643Zm30.193,0H69.01c1.511-10.491,5.212-23.679,9.828-26.352,0,5.055,0,17.931,0,26.352Zm-30.193-57.03H65.416v-3.355H48.643ZM52-171.938H62.062v-3.355H52Zm5.032-29.387,2.778,9.259H54.252ZM52-178.647H62.062V-182H52Zm0-6.709H62.062v-3.355H52Zm30.4,16.773a6.921,6.921,0,0,1,6.913,6.913,6.922,6.922,0,0,1-6.913,6.914c-.069,0-.136-.008-.2-.011v18.053h-.043a12.363,12.363,0,0,1,.045,1.3V-132l0,27.152h-1.5l-6.835,7.456-6.522-6.522L57-94.117l-9.98-9.98-6.15,6.709-7.457-7.456H31.869v-49.922a6.917,6.917,0,0,1-6.709-6.9,6.921,6.921,0,0,1,6.914-6.913,6.918,6.918,0,0,1,6.306,4.094l6.908-3.454v-3.995h3.355v-20.128H50.75L57.03-213l6.281,20.934h2.106v20.128h3.355v3.995l7.241,3.62A6.923,6.923,0,0,1,82.394-168.583Zm-67.3-4.134a2.816,2.816,0,0,1,.794.779h.883v3.355H15.695a2.814,2.814,0,0,1-.6.541v1.136H11.741v-1.377a2.715,2.715,0,0,1-.295-.3H10.064v-3.355h1.188a2.817,2.817,0,0,1,.49-.538v-1.139H15.1Zm93.165-29.646a2.822,2.822,0,0,1,0,.77l.8.8-2.372,2.372-.8-.8a2.789,2.789,0,0,1-.385.037,2.789,2.789,0,0,1-.385-.037l-.8.8-2.372-2.372.8-.8a2.778,2.778,0,0,1,0-.77l-.8-.8,2.372-2.372.8.8a2.81,2.81,0,0,1,.769,0l.8-.8,2.372,2.372Zm-7.129,20.82,2.372,2.372-.8.8a2.766,2.766,0,0,1,.037.386,2.766,2.766,0,0,1-.037.386l.8.8-2.372,2.372-.8-.8a2.841,2.841,0,0,1-.386.037,2.859,2.859,0,0,1-.386-.037l-.8.8L96.388-176.8l.8-.8a2.764,2.764,0,0,1-.038-.386,2.765,2.765,0,0,1,.038-.386l-.8-.8,2.372-2.372.8.8a2.767,2.767,0,0,1,.386-.038,2.767,2.767,0,0,1,.386.038ZM10.9-210.517a10.915,10.915,0,0,1,10.9,10.9,10.915,10.915,0,0,1-10.9,10.9A10.915,10.915,0,0,1,0-199.614,10.915,10.915,0,0,1,10.9-210.517Zm0,18.451a7.557,7.557,0,0,0,7.548-7.548,7.557,7.557,0,0,0-7.548-7.548,7.557,7.557,0,0,0-7.548,7.548A7.557,7.557,0,0,0,10.9-192.066Z" transform="translate(0 213)" fill="#76b2b1" clip-rule="evenodd"/>
</clipPath>
<clipPath id="clip-path-2">
<path d="M-454,316.175H163.263V-2050H-454Z" transform="translate(454 2050)" fill="#76b2b1"/>
</clipPath>
</defs>
<g transform="matrix(0.819, 0.574, -0.574, 0.819, 361.789, -1986.664)">
<g>
<g>
<circle cx="3" cy="3" r="3" transform="translate(1016 1827)" fill="#eb1e5d"/>
<g transform="translate(892 1850)" fill="none" stroke="#eb1e5d" stroke-width="2">
<circle cx="6" cy="6" r="6" stroke="none"/>
<circle cx="6" cy="6" r="5" fill="none"/>
</g>
<circle cx="1.5" cy="1.5" r="1.5" transform="translate(885 1838)" fill="#eb1e5d"/>
<circle cx="1.5" cy="1.5" r="1.5" transform="translate(976 1810)" fill="#eb1e5d"/>
<g transform="translate(899 2008.782)">
<g transform="translate(0 -213)" clip-path="url(#clip-path)">
<g transform="translate(-253.838 -1027.094)" clip-path="url(#clip-path-2)">
<path d="M-5-218H109.653V-93.526H-5Z" transform="translate(256.043 1242.299)" fill="#76b2b1"/>
</g>
</g>
</g>
</g>
</g>
</g>
</svg>