<svg xmlns="http://www.w3.org/2000/svg" width="36.097" height="27.493" viewBox="0 0 36.097 27.493">
<g transform="translate(-70.717 -5326.01)">
<g transform="translate(0 174)">
<g transform="translate(72.529 5152.01)">
<path d="M22.8,0H-6.947a3.141,3.141,0,0,0-1.36.318L7.857,16.483,11.483,13h0L24.164.318A3.128,3.128,0,0,0,22.8,0" transform="translate(8.307 0)" fill="#fff"/>
</g>
<g transform="translate(94.56 5153.824)">
<path d="M8.749,0-3.187,11.932,8.749,23.868a3.141,3.141,0,0,0,.318-1.36V1.36A3.116,3.116,0,0,0,8.749,0" transform="translate(3.187)" fill="#fff"/>
</g>
<g transform="translate(70.717 5153.824)">
<path d="M.233,0A3.128,3.128,0,0,0-.085,1.36V22.509a3.141,3.141,0,0,0,.318,1.36L12.166,11.932Z" transform="translate(0.085)" fill="#fff"/>
</g>
<g transform="translate(72.531 5167.253)">
<path d="M15.052,0,11.431,3.483a1.067,1.067,0,0,1-1.5,0L6.449,0-5.483,11.932a3.116,3.116,0,0,0,1.36.318H25.629a3.112,3.112,0,0,0,1.356-.318Z" transform="translate(5.483)" fill="#fff"/>
</g>
</g>
</g>
</svg>
