<svg id="project-home-plant" class="icon" xmlns="http://www.w3.org/2000/svg" xmlns:xlink="http://www.w3.org/1999/xlink" width="2353.054" height="1904.614" viewBox="0 0 2353.054 1904.614"><defs><clipPath id="project-home-path"><path d="M618.335,686.252,198.5,331.92,604.8,1314.428,0,804,431.027,1846.281h803.955l-220.736-186.3L1421.09,676.142,1052.5,987.23,1421.09,95.882l-405.86,342.54L248.12-209ZM379.023-26.149,972.365,474.6,686.036,716.249ZM712.832,766l577.355-487.271L991.436,1001.147ZM329.417,514.761,970.86,1056.124,661.316,1317.369Zm348.257,861.165,612.512-516.933L973.25,1625.379ZM130.92,986.847l948.405,800.415h-617.4Z" transform="translate(0 209)" fill="#8fc4c3" clip-rule="evenodd"/></clipPath><clipPath id="project-home-path-2"><path d="M-774,37648.359H8356.5V-3973H-774Z" transform="translate(774 3972.998)" fill="#8fc4c3"/></clipPath></defs><g transform="matrix(-0.259, -0.966, 0.966, -0.259, 569.684, 1850.521)" opacity="0.116"><g transform="translate(0 -209)" clip-path="url(#project-home-path)"><g transform="translate(-6401.271 -37018.621)" clip-path="url(#project-home-path-2)"><path d="M-5-214H1498.794V1939.63H-5Z" transform="translate(6364.919 37183.449)" fill="#8fc4c3"/></g></g></g></svg>