<svg xmlns="http://www.w3.org/2000/svg" xmlns:xlink="http://www.w3.org/1999/xlink" width="151.137" height="141.981" viewBox="0 0 151.137 141.981">
<defs>
<clipPath id="clip-path">
<path d="M26.416-83.555l2.9,2.9-.98.981a3.454,3.454,0,0,1,0,.943l.98.98-2.9,2.9-.98-.981a3.424,3.424,0,0,1-.472.045,3.415,3.415,0,0,1-.471-.045l-.98.981-2.9-2.9.98-.98a3.459,3.459,0,0,1,0-.944l-.98-.98,2.9-2.9.98.98a3.459,3.459,0,0,1,.944,0ZM7.172-94.089a2.053,2.053,0,0,1,2.053,2.053,2.053,2.053,0,0,1-2.053,2.053,2.053,2.053,0,0,1-2.053-2.053A2.053,2.053,0,0,1,7.172-94.089Zm94.016-43.543L138.433-99.4,103.14-65.019,65.895-103.253,82.07-119.01l-5.73-5.882L63.106-112l-2.865-2.941-5.882,5.73L42.9-120.975l5.882-5.73-2.865-2.941L59.15-142.538l-5.73-5.882L37.245-132.663,0-170.9l35.293-34.38,37.245,38.234L56.362-151.286l5.73,5.882,10.293-10.027-2.865-2.941,8.823-8.595,10.027,10.294,3.922-3.82,2.865,2.94-3.921,3.82,10.027,10.294-8.823,8.594-2.865-2.94L79.282-127.757l5.73,5.882Zm-.837,63.866,2.865,2.941,29.41-28.651-2.865-2.941Zm.76-58.06L71.7-103.176l2.865,2.94,29.411-28.649Zm21.011,21.567L92.711-81.609l4.775,4.9,29.41-28.651ZM82.206-92.393l29.411-28.649-4.775-4.9L77.431-97.294ZM114.482-118.1,85.071-89.451l4.775,4.9,29.411-28.65ZM51.722-129.57l11.46,11.765,23.529-22.92L75.251-152.49Zm21.944-12.778,2.865,2.942L64.767-127.947,61.9-130.889ZM54.435-115.017l2.94-2.865-2.865-2.941-2.865-2.941L48.7-120.9ZM75.327-158.3l17.19,17.646,2.941-2.865L78.267-161.161ZM34.456-141.41l2.866,2.942,29.41-28.651-2.866-2.941Zm.76-58.06L5.806-170.82l2.865,2.941,29.411-28.651ZM56.226-177.9l-29.41,28.65,4.775,4.9L61-173ZM16.311-160.036l29.41-28.651-4.775-4.9-29.41,28.65Zm32.275-25.71L19.176-157.1l4.775,4.9,29.411-28.65Zm72.523,5.434a13.359,13.359,0,0,1-13.344-13.344A13.359,13.359,0,0,1,121.109-207a13.359,13.359,0,0,1,13.344,13.344A13.359,13.359,0,0,1,121.109-180.312Zm0-22.582a9.249,9.249,0,0,0-9.238,9.238,9.249,9.249,0,0,0,9.238,9.238,9.249,9.249,0,0,0,9.238-9.238A9.249,9.249,0,0,0,121.109-202.894Zm7.953,46.118,2.9,2.9-.98.981a3.453,3.453,0,0,1,0,.943l.98.98-2.9,2.9-.98-.981a3.422,3.422,0,0,1-.472.045,3.412,3.412,0,0,1-.471-.045l-.98.981-2.9-2.9.98-.98a3.459,3.459,0,0,1,0-.944l-.98-.98,2.9-2.9.98.98a3.459,3.459,0,0,1,.944,0ZM99.553-174.855a3.436,3.436,0,0,1-.667-.667H97.5v-4.106h1.386a3.421,3.421,0,0,1,.667-.667v-1.386h4.106v1.386a3.42,3.42,0,0,1,.667.667h1.386v4.106h-1.386a3.435,3.435,0,0,1-.667.667v1.386H99.553Z" transform="translate(0 207)" fill="#eb1e4d" clip-rule="evenodd"/>
</clipPath>
<clipPath id="clip-path-2">
<path d="M-451,1163.993H304.476V-1732H-451Z" transform="translate(451 1732)" fill="#eb1e4d"/>
</clipPath>
</defs>
<g data-name="Groupe 81" transform="translate(-699.863 -2845.5)">
<g transform="translate(699.863 3052.5)">
<g transform="translate(0 -207)" clip-path="url(#clip-path)">
<g transform="translate(-308.623 -1043.57)" clip-path="url(#clip-path-2)">
<path d="M-5-212H140.276V-63.176H-5Z" transform="translate(310.202 1252.149)" fill="#eb1e4d"/>
</g>
</g>
</g>
<g transform="translate(700 2932)" fill="none" stroke="#8fc4c3" stroke-width="3">
<circle cx="6.5" cy="6.5" r="6.5" stroke="none"/>
<circle cx="6.5" cy="6.5" r="5" fill="none"/>
</g>
<g transform="translate(838 2877)" fill="none" stroke="#8fc4c3" stroke-width="3">
<circle cx="6.5" cy="6.5" r="6.5" stroke="none"/>
<circle cx="6.5" cy="6.5" r="5" fill="none"/>
</g>
<circle cx="3" cy="3" r="3" transform="translate(721 2951)" fill="#8fc4c3"/>
<circle cx="3" cy="3" r="3" transform="translate(808 2887)" fill="#8fc4c3"/>
</g>
</svg>