<svg xmlns="http://www.w3.org/2000/svg" xmlns:xlink="http://www.w3.org/1999/xlink" width="154" height="132.723" viewBox="0 0 154 132.723">
<defs>
<clipPath id="clip-path">
<path d="M128.729-161.253a4.944,4.944,0,0,1-3.523-1.416,4.927,4.927,0,0,1-1.489-3.492,4.966,4.966,0,0,1,4.909-5.012,4.888,4.888,0,0,1,3.523,1.416,4.929,4.929,0,0,1,1.489,3.492,4.966,4.966,0,0,1-4.909,5.012ZM75.085-141.817a4.926,4.926,0,0,1-3.492,1.488,4.934,4.934,0,0,1-3.523-1.416,4.925,4.925,0,0,1-1.489-3.492A4.927,4.927,0,0,1,68-148.76a4.927,4.927,0,0,1,3.492-1.489,4.9,4.9,0,0,1,3.522,1.416A4.924,4.924,0,0,1,76.5-145.34a4.927,4.927,0,0,1-1.416,3.523ZM34.959-102.733l-23.054-17.55L64.146-140.3a9.022,9.022,0,0,0,1.152,1.381,8.858,8.858,0,0,0,4.2,2.3L67.06-114.574Zm99.961-69.855a8.72,8.72,0,0,1,2.679,6.218,8.846,8.846,0,0,1-8.83,8.951h-.094a8.8,8.8,0,0,1-6.241-2.484,8.717,8.717,0,0,1-2.679-6.218,8.88,8.88,0,0,1,.4-2.715l-12.388-7.425-21.359,6.6-8.721,17.9c.033.032.069.059.1.09a8.864,8.864,0,0,1,2.678,6.282,8.863,8.863,0,0,1-2.547,6.336,8.865,8.865,0,0,1-4.434,2.464L70.728-111.7,34.29-98.263,3.847-121.438l58.876-22.554a8.978,8.978,0,0,1-.1-1.2,8.865,8.865,0,0,1,2.547-6.336,8.866,8.866,0,0,1,6.282-2.679,8.936,8.936,0,0,1,2.818.425l9.328-19.149,24.689-7.635,13.855,8.3a8.891,8.891,0,0,1,6.447-2.871A8.841,8.841,0,0,1,134.92-172.588ZM33.757-79.9l2.8,2.8-.945.945a3.275,3.275,0,0,1,.044.456,3.266,3.266,0,0,1-.044.456l.945.945-2.8,2.8-.945-.946a3.265,3.265,0,0,1-.456.045,3.266,3.266,0,0,1-.456-.045l-.945.946-2.8-2.8.945-.945a3.266,3.266,0,0,1-.045-.456,3.276,3.276,0,0,1,.045-.456l-.945-.945,2.8-2.8.945.945A3.369,3.369,0,0,1,32.356-79a3.368,3.368,0,0,1,.456.044Zm10.565-84.52,2.8,2.8-.945.945a3.275,3.275,0,0,1,.044.456,3.266,3.266,0,0,1-.044.456l.945.945-2.8,2.8-.945-.946a3.265,3.265,0,0,1-.456.045,3.266,3.266,0,0,1-.456-.045l-.945.946-2.8-2.8.945-.945a3.266,3.266,0,0,1-.045-.456,3.276,3.276,0,0,1,.045-.456l-.945-.945,2.8-2.8.945.945a3.368,3.368,0,0,1,.456-.044,3.367,3.367,0,0,1,.456.044Zm61.409,41.6,2.8,2.8-.945.945a3.276,3.276,0,0,1,.044.456,3.266,3.266,0,0,1-.044.456l.945.945-2.8,2.8-.945-.946a3.265,3.265,0,0,1-.456.045,3.266,3.266,0,0,1-.456-.045l-.945.946-2.8-2.8.945-.945a3.266,3.266,0,0,1-.045-.456,3.275,3.275,0,0,1,.045-.456l-.945-.945,2.8-2.8.945.945a3.369,3.369,0,0,1,.456-.044,3.368,3.368,0,0,1,.456.044ZM15.188-90.067a1.981,1.981,0,0,1,1.981,1.981,1.981,1.981,0,0,1-1.981,1.981,1.981,1.981,0,0,1-1.981-1.981A1.981,1.981,0,0,1,15.188-90.067ZM6.286-159.4a6.374,6.374,0,0,1-.79-.05,6.232,6.232,0,0,1-4.173-2.373,6.231,6.231,0,0,1-1.273-4.629,6.23,6.23,0,0,1,2.373-4.173A6.232,6.232,0,0,1,7.051-171.9a6.231,6.231,0,0,1,4.173,2.374A6.229,6.229,0,0,1,12.5-164.9a6.231,6.231,0,0,1-2.373,4.173A6.226,6.226,0,0,1,6.286-159.4ZM4.45-164.255a2.3,2.3,0,0,0,1.537.874,2.3,2.3,0,0,0,1.706-.469,2.3,2.3,0,0,0,.874-1.537,2.293,2.293,0,0,0-.469-1.706,2.293,2.293,0,0,0-1.537-.874,2.4,2.4,0,0,0-.291-.018,2.293,2.293,0,0,0-1.414.487,2.3,2.3,0,0,0-.874,1.537A2.3,2.3,0,0,0,4.45-164.255Zm35.17-30.159a3.315,3.315,0,0,1-.643-.643H37.639v-3.962h1.338a3.3,3.3,0,0,1,.643-.644V-201h3.962v1.337a3.3,3.3,0,0,1,.643.644h1.338v3.962H44.225a3.315,3.315,0,0,1-.643.643v1.338H39.62ZM121.829-94.029A12.891,12.891,0,0,1,134.7-81.153a12.891,12.891,0,0,1-12.876,12.876,12.891,12.891,0,0,1-12.876-12.876A12.891,12.891,0,0,1,121.829-94.029Zm0,21.79a8.924,8.924,0,0,0,8.914-8.914,8.924,8.924,0,0,0-8.914-8.914,8.924,8.924,0,0,0-8.914,8.914A8.924,8.924,0,0,0,121.829-72.239Zm-.99-119.517a1.981,1.981,0,0,1-1.981-1.981,1.981,1.981,0,0,1,1.981-1.981,1.981,1.981,0,0,1,1.981,1.981A1.981,1.981,0,0,1,120.838-191.756Z" transform="translate(0 201)" fill="#fff" clip-rule="evenodd"/>
</clipPath>
<clipPath id="clip-path-2">
<path d="M-124,1518.452H604.987V-1276H-124Z" transform="translate(124 1276)" fill="#eb1e5d"/>
</clipPath>
</defs>
<g transform="translate(-265 -2503.277)">
<g transform="translate(265 2704.277)">
<g transform="translate(0 -201)" clip-path="url(#clip-path)">
<g transform="translate(-81.879 -709.838)" clip-path="url(#clip-path-2)">
<path d="M-5-206H139.2V-66.674H-5Z" transform="translate(83.577 912.537)" fill="#eb1e5d"/>
</g>
</g>
</g>
<g transform="translate(406 2563)" fill="none" stroke="#8fc4c3" stroke-width="3">
<circle cx="6.5" cy="6.5" r="6.5" stroke="none"/>
<circle cx="6.5" cy="6.5" r="5" fill="none"/>
</g>
<g transform="translate(327 2513)" fill="none" stroke="#8fc4c3" stroke-width="3">
<circle cx="6.5" cy="6.5" r="6.5" stroke="none"/>
<circle cx="6.5" cy="6.5" r="5" fill="none"/>
</g>
<circle cx="3" cy="3" r="3" transform="translate(345 2617)" fill="#8fc4c3"/>
</g>
</svg>
