<svg xmlns="http://www.w3.org/2000/svg" xmlns:xlink="http://www.w3.org/1999/xlink" width="178" height="152.001" viewBox="0 0 178 152.001">
<defs>
<clipPath id="clip-path">
<path d="M114.595-95.317a2.38,2.38,0,0,1-.905,1.593,2.373,2.373,0,0,1-1.766.486,2.38,2.38,0,0,1-1.593-.905,2.375,2.375,0,0,1-.486-1.766,2.38,2.38,0,0,1,.905-1.593,2.371,2.371,0,0,1,1.464-.5,2.365,2.365,0,0,1,.3.019,2.38,2.38,0,0,1,1.593.905,2.381,2.381,0,0,1,.486,1.766M67.2-126.044a36.972,36.972,0,0,1-36.866-34.875H58.424a9.556,9.556,0,0,0,9,7.522h.1c4.355-.684,7.975-3.45,8.9-7.522h27.639A36.972,36.972,0,0,1,67.2-126.044m5.365-36.979c.029,2.832-2.25,4.839-5.084,5.523h-.055a5.44,5.44,0,0,1-5.135-5.417c-.029-2.832,2.25-4.84,5.083-5.524h.055a5.441,5.441,0,0,1,5.136,5.418M67.2-199.9a36.972,36.972,0,0,1,36.867,34.875H76.435a9.557,9.557,0,0,0-9-7.522h-.1c-4.355.684-7.975,3.451-8.9,7.522H30.335A36.972,36.972,0,0,1,67.2-199.9M104.31-73.37a2.38,2.38,0,0,1,1.593.905,2.381,2.381,0,0,1,.486,1.766,2.38,2.38,0,0,1-.905,1.593,2.379,2.379,0,0,1-1.766.486,2.38,2.38,0,0,1-1.593-.905,2.375,2.375,0,0,1-.486-1.766,2.38,2.38,0,0,1,.905-1.593,2.372,2.372,0,0,1,1.464-.5,2.364,2.364,0,0,1,.3.019M33.219-70.7a2.38,2.38,0,0,1-.905,1.593,2.378,2.378,0,0,1-1.766.486,2.38,2.38,0,0,1-1.593-.905,2.375,2.375,0,0,1-.486-1.766,2.38,2.38,0,0,1,.905-1.593,2.372,2.372,0,0,1,1.464-.5,2.364,2.364,0,0,1,.3.019,2.38,2.38,0,0,1,1.593.905,2.381,2.381,0,0,1,.486,1.766M25.013-95.317a2.38,2.38,0,0,1-.905,1.593,2.373,2.373,0,0,1-1.766.486,2.38,2.38,0,0,1-1.593-.905,2.375,2.375,0,0,1-.486-1.766A2.38,2.38,0,0,1,21.17-97.5a2.371,2.371,0,0,1,1.464-.5,2.365,2.365,0,0,1,.3.019,2.38,2.38,0,0,1,1.593.905,2.381,2.381,0,0,1,.486,1.766m88.012-6.742a6.449,6.449,0,0,1,4.322,2.457,6.446,6.446,0,0,1,1.318,4.794,6.449,6.449,0,0,1-2.458,4.322,6.44,6.44,0,0,1-3.974,1.37,6.464,6.464,0,0,1-.819-.051,6.452,6.452,0,0,1-4.322-2.458,6.447,6.447,0,0,1-1.318-4.793,6.438,6.438,0,0,1,2.049-3.972L97.177-135a41.305,41.305,0,0,1-9.214,7.393L103.391-77.46a6.482,6.482,0,0,1,1.428.019,6.449,6.449,0,0,1,4.322,2.457,6.446,6.446,0,0,1,1.318,4.794A6.449,6.449,0,0,1,108-65.869a6.44,6.44,0,0,1-3.974,1.37,6.463,6.463,0,0,1-.819-.051,6.452,6.452,0,0,1-4.322-2.458A6.447,6.447,0,0,1,97.569-71.8a6.44,6.44,0,0,1,2.049-3.972l-15.354-49.9A40.766,40.766,0,0,1,67.2-121.941a40.771,40.771,0,0,1-17.063-3.731L34.88-76.08a6.492,6.492,0,0,1,1.092,1.1A6.446,6.446,0,0,1,37.29-70.19a6.449,6.449,0,0,1-2.458,4.322,6.44,6.44,0,0,1-3.974,1.37,6.463,6.463,0,0,1-.819-.051,6.452,6.452,0,0,1-4.322-2.458A6.446,6.446,0,0,1,24.4-71.8a6.452,6.452,0,0,1,2.457-4.322,6.438,6.438,0,0,1,4.165-1.367L46.44-127.6A41.286,41.286,0,0,1,37.227-135L26.674-100.7a6.492,6.492,0,0,1,1.092,1.1,6.446,6.446,0,0,1,1.318,4.794,6.45,6.45,0,0,1-2.458,4.322,6.44,6.44,0,0,1-3.974,1.37,6.464,6.464,0,0,1-.819-.051,6.452,6.452,0,0,1-4.322-2.458,6.446,6.446,0,0,1-1.318-4.793,6.452,6.452,0,0,1,2.457-4.322,6.439,6.439,0,0,1,4.165-1.367L34.1-138.771a40.8,40.8,0,0,1-7.925-24.2A41.076,41.076,0,0,1,67.2-204a41.076,41.076,0,0,1,41.03,41.03,40.8,40.8,0,0,1-7.923,24.2l11.29,36.693A6.483,6.483,0,0,1,113.025-102.059ZM33.592-200.595a1.934,1.934,0,0,1-2.726.225,1.934,1.934,0,0,1-.225-2.726,1.934,1.934,0,0,1,2.726-.225A1.934,1.934,0,0,1,33.592-200.595Zm-7.941,6.562a42.931,42.931,0,0,0-6.885,44.477l-3.786,1.58a47.018,47.018,0,0,1,7.541-48.71Zm105.375-1.077v4.1h-1.319a3.441,3.441,0,0,1-.732.662v1.39h-4.1v-1.684a3.442,3.442,0,0,1-.36-.367h-1.692v-4.1h1.452a3.421,3.421,0,0,1,.6-.658v-1.394h4.1v1.1a3.44,3.44,0,0,1,.972.953ZM5.8-133.689l2.9,2.9-.979.979a3.456,3.456,0,0,1,0,.943l.979.979-2.9,2.9-.979-.98a3.412,3.412,0,0,1-.471.045,3.422,3.422,0,0,1-.472-.045l-.979.98-2.9-2.9.979-.979a3.429,3.429,0,0,1,0-.943L0-130.788l2.9-2.9.979.979a3.4,3.4,0,0,1,.943,0ZM118.716-182.8a2.051,2.051,0,0,1,2.051,2.051,2.051,2.051,0,0,1-2.051,2.051,2.051,2.051,0,0,1-2.051-2.051A2.051,2.051,0,0,1,118.716-182.8Z" transform="translate(0 204)" fill="#8fc4c3" clip-rule="evenodd"/>
</clipPath>
<clipPath id="clip-path-2">
<path d="M-456,218.948H298.942V-2675H-456Z" transform="translate(456 2675)" fill="#8fc4c3"/>
</clipPath>
</defs>
<g transform="translate(-247 -2843)">
<g transform="translate(273.027 2855.5)">
<g clip-path="url(#clip-path)">
<g transform="translate(-311.825 -1689.732)" clip-path="url(#clip-path-2)">
<path d="M-5-209H132.863V-62.661H-5Z" transform="translate(313.405 1895.313)" fill="#8fc4c3"/>
</g>
</g>
</g>
<g transform="translate(379 2843)" fill="none" stroke="#eb1e5d" stroke-width="3">
<circle cx="6.5" cy="6.5" r="6.5" stroke="none"/>
<circle cx="6.5" cy="6.5" r="5" fill="none"/>
</g>
<circle cx="3" cy="3" r="3" transform="translate(404 2884)" fill="#eb1e5d"/>
<circle cx="3" cy="3" r="3" transform="translate(247 2916)" fill="#eb1e5d"/>
<circle cx="3" cy="3" r="3" transform="translate(419 2850)" fill="#eb1e5d"/>
<circle cx="3" cy="3" r="3" transform="translate(270 2946)" fill="#eb1e5d"/>
</g>
</svg>
