<svg xmlns="http://www.w3.org/2000/svg" xmlns:xlink="http://www.w3.org/1999/xlink" width="133.392" height="125" viewBox="0 0 133.392 125">
<defs>
<clipPath id="clip-path">
<path d="M63.135-156.6a9.186,9.186,0,0,1,8.006,8.9,8.9,8.9,0,0,1-8.891,8.844c-.3,0-.593-.015-.885-.044-4.34-.442-7.707-4.116-8.006-8.9a8.9,8.9,0,0,1,8.891-8.844c.3,0,.593.016.885.045M61.6-163.633c8.334-3.284,20.665-3.683,36.651-1.187a183.586,183.586,0,0,1,21.424,4.695l-1.016,3.409c-.369-.11-37.173-10.926-55.754-3.607-.11.044-.21.1-.319.141.308.008.617.017.919.047.239.024.471.069.706.106.164.027.332.043.494.076a12.466,12.466,0,0,1,9.99,12.059c0,.015,0,.029,0,.044s0,.036,0,.052,0,.033,0,.05,0,.025,0,.038c.234,5.363-3.788,12.691-11.8,15.845-4.739,1.868-10.772,2.8-18.032,2.8a121.9,121.9,0,0,1-18.619-1.616,183.3,183.3,0,0,1-21.424-4.695l1.016-3.409c.276.082,20.911,6.147,39.074,6.148,6.137,0,11.988-.692,16.681-2.541.11-.043.211-.095.319-.14-.308-.008-.617-.017-.919-.047-.239-.024-.471-.069-.706-.106-.164-.026-.332-.043-.494-.075a12.465,12.465,0,0,1-9.99-12.059c0-.015,0-.029,0-.044s0-.036,0-.053,0-.033,0-.05,0-.025,0-.037C49.568-153.15,53.59-160.478,61.6-163.633ZM62.25-185.1A37.393,37.393,0,0,0,24.9-147.75H21.343A40.953,40.953,0,0,1,62.25-188.657a40.717,40.717,0,0,1,14.877,2.79l-1.294,3.313A37.187,37.187,0,0,0,62.25-185.1Zm0,74.7A37.393,37.393,0,0,0,99.6-147.75h3.557A40.953,40.953,0,0,1,62.25-106.843a40.717,40.717,0,0,1-14.877-2.79l1.294-3.313A37.187,37.187,0,0,0,62.25-110.4Zm0-60.472A23.147,23.147,0,0,0,39.129-147.75a23.125,23.125,0,0,0,.958,6.609l-3.41,1.015a26.688,26.688,0,0,1-1.106-7.624A26.709,26.709,0,0,1,62.25-174.428Zm0,46.243A23.147,23.147,0,0,0,85.372-147.75a23.125,23.125,0,0,0-.958-6.609l3.41-1.015a26.688,26.688,0,0,1,1.106,7.624A26.709,26.709,0,0,1,62.25-121.071Zm19.564-55.136a1.778,1.778,0,0,1-1.779-1.779,1.778,1.778,0,0,1,1.779-1.779,1.778,1.778,0,0,1,1.779,1.779A1.778,1.778,0,0,1,81.814-179.764ZM42.686-115.736a1.778,1.778,0,0,1,1.779,1.779,1.778,1.778,0,0,1-1.779,1.779,1.778,1.778,0,0,1-1.779-1.779A1.778,1.778,0,0,1,42.686-115.736ZM115.607-210a8.9,8.9,0,0,1,8.893,8.893,8.9,8.9,0,0,1-8.893,8.893,8.9,8.9,0,0,1-8.893-8.893A8.9,8.9,0,0,1,115.607-210Zm0,14.229a5.342,5.342,0,0,0,5.336-5.336,5.342,5.342,0,0,0-5.336-5.336,5.342,5.342,0,0,0-5.336,5.336A5.342,5.342,0,0,0,115.607-195.771ZM100.977-178.03a5.6,5.6,0,0,1-3.747-2.131,5.594,5.594,0,0,1-1.143-4.156,5.6,5.6,0,0,1,2.131-3.747,5.592,5.592,0,0,1,4.156-1.143,5.594,5.594,0,0,1,3.747,2.131,5.594,5.594,0,0,1,1.143,4.156,5.594,5.594,0,0,1-2.131,3.747,5.59,5.59,0,0,1-3.446,1.187A5.725,5.725,0,0,1,100.977-178.03Zm-1.36-5.846a2.063,2.063,0,0,0,.421,1.531,2.061,2.061,0,0,0,1.38.784,2.054,2.054,0,0,0,1.531-.421,2.059,2.059,0,0,0,.784-1.38,2.058,2.058,0,0,0-.421-1.531,2.06,2.06,0,0,0-1.38-.785,2.045,2.045,0,0,0-.261-.017,2.056,2.056,0,0,0-1.269.438A2.061,2.061,0,0,0,99.617-183.875ZM8.893-103.286a8.9,8.9,0,0,1,8.893,8.893A8.9,8.9,0,0,1,8.893-85.5,8.9,8.9,0,0,1,0-94.393,8.9,8.9,0,0,1,8.893-103.286Zm0,14.229a5.342,5.342,0,0,0,5.336-5.336,5.342,5.342,0,0,0-5.336-5.336,5.342,5.342,0,0,0-5.336,5.336A5.342,5.342,0,0,0,8.893-89.057ZM23.524-117.47a5.6,5.6,0,0,1,3.747,2.131,5.594,5.594,0,0,1,1.143,4.156,5.6,5.6,0,0,1-2.131,3.747,5.591,5.591,0,0,1-3.446,1.187,5.722,5.722,0,0,1-.71-.044,5.594,5.594,0,0,1-3.747-2.131,5.594,5.594,0,0,1-1.143-4.156,5.594,5.594,0,0,1,2.131-3.747A5.6,5.6,0,0,1,23.524-117.47Zm1.36,5.846a2.062,2.062,0,0,0-.421-1.531,2.061,2.061,0,0,0-1.38-.784,2.05,2.05,0,0,0-.261-.017,2.059,2.059,0,0,0-1.27.438,2.059,2.059,0,0,0-.784,1.38,2.058,2.058,0,0,0,.421,1.531,2.06,2.06,0,0,0,1.38.785,2.057,2.057,0,0,0,1.531-.421A2.061,2.061,0,0,0,24.884-111.625Z" transform="translate(0 210)" fill="#8fc4c3" clip-rule="evenodd"/>
</clipPath>
<clipPath id="clip-path-2">
<path d="M-771,1852.976h654.516V-656H-771Z" transform="translate(771 656)" fill="#8fc4c3"/>
</clipPath>
</defs>
<g transform="translate(-690 -2513)">
<g transform="translate(698.892 2513.5)">
<g clip-path="url(#clip-path)">
<g transform="translate(-457.094 -264.415)" clip-path="url(#clip-path-2)">
<path d="M-5-215H125.429V-84.571H-5Z" transform="translate(459.129 476.451)" fill="#8fc4c3"/>
</g>
</g>
</g>
<g transform="translate(727 2623)" fill="none" stroke="#eb1e5d" stroke-width="3">
<circle cx="6.5" cy="6.5" r="6.5" stroke="none"/>
<circle cx="6.5" cy="6.5" r="5" fill="none"/>
</g>
<g transform="translate(779 2513)" fill="none" stroke="#eb1e5d" stroke-width="3">
<circle cx="6.5" cy="6.5" r="6.5" stroke="none"/>
<circle cx="6.5" cy="6.5" r="5" fill="none"/>
</g>
<circle cx="3" cy="3" r="3" transform="translate(817 2541)" fill="#eb1e5d"/>
<circle cx="3" cy="3" r="3" transform="translate(690 2603)" fill="#eb1e5d"/>
</g>
</svg>
